<?xml version="1.0" encoding="UTF-8"?>
<svg version="1.1" xmlns="http://www.w3.org/2000/svg" width="404" height="404">
<path d="M0 0 C1.17369141 0.04253906 1.17369141 0.04253906 2.37109375 0.0859375 C3.15613281 0.09882813 3.94117188 0.11171875 4.75 0.125 C6.80859375 0.4609375 6.80859375 0.4609375 8.80859375 2.4609375 C9.9127463 11.23184891 8.00707679 19.72012021 5.99609375 28.2109375 C5.73505859 29.37753906 5.47402344 30.54414062 5.20507812 31.74609375 C3.98865391 37.05030402 2.66206617 42.1203 0.63696289 47.16748047 C-0.50391111 50.32615138 -1.38725333 53.54919268 -2.27734375 56.78515625 C-2.46284286 57.45823822 -2.64834198 58.13132019 -2.83946228 58.82479858 C-3.60959813 61.63102445 -4.37456411 64.43860507 -5.13378906 67.24780273 C-7.65838555 76.56243011 -10.52367632 85.51856188 -14.19140625 94.4609375 C-13.29019043 93.90486816 -12.38897461 93.34879883 -11.46044922 92.77587891 C-4.37541246 88.40426048 -4.37541246 88.40426048 -1.19140625 86.4609375 C-0.43134277 85.99703613 0.3287207 85.53313477 1.11181641 85.05517578 C7.1362481 81.40727852 13.24573873 77.94832578 19.43359375 74.5859375 C20.38637207 74.06781494 21.33915039 73.54969238 22.32080078 73.01586914 C28.07183607 69.90390181 33.84415646 66.84146868 39.68359375 63.8984375 C40.59939209 63.4336499 40.59939209 63.4336499 41.53369141 62.95947266 C52.60725776 57.4609375 52.60725776 57.4609375 58.80859375 57.4609375 C58.80859375 56.8009375 58.80859375 56.1409375 58.80859375 55.4609375 C59.6284375 55.06261719 60.44828125 54.66429687 61.29296875 54.25390625 C62.370625 53.72410156 63.44828125 53.19429687 64.55859375 52.6484375 C65.6259375 52.12636719 66.69328125 51.60429688 67.79296875 51.06640625 C70.76548456 49.58730078 70.76548456 49.58730078 73.02734375 47.7734375 C75.36561162 46.05050328 76.97507982 46.22481134 79.80859375 46.4609375 C79.74609375 48.7109375 79.74609375 48.7109375 78.80859375 51.4609375 C75.43359375 53.5859375 75.43359375 53.5859375 73.59765625 54.46875 C71.60506099 55.57381374 70.39739596 56.82971581 68.80859375 58.4609375 C67.02598366 59.90965313 65.23329201 61.34600559 63.43359375 62.7734375 C58.96498684 66.37421764 58.96498684 66.37421764 55.18359375 70.6484375 C52.47545791 73.85544047 49.62822426 75.76349172 46.08984375 77.96875 C43.74751639 79.44669205 43.74751639 79.44669205 41.49609375 81.328125 C37.6183802 84.40549651 33.47716697 87.04385005 29.3359375 89.75 C25.67022851 92.1641841 22.23436475 94.71130552 18.80859375 97.4609375 C16.0769668 99.25062412 13.30525732 100.96299934 10.52734375 102.6796875 C7.79704335 104.40585136 7.79704335 104.40585136 5.3828125 106.41015625 C2.43035876 108.7622628 -0.6875191 110.76906396 -3.87890625 112.7734375 C-18.71428382 121.21846812 -18.71428382 121.21846812 -27.4453125 134.94921875 C-27.82494141 136.21314453 -28.20457031 137.47707031 -28.59570312 138.77929688 C-28.98245946 140.11047721 -29.36852194 141.44185931 -29.75390625 142.7734375 C-30.33424933 144.74428162 -30.91830126 146.71392784 -31.50657654 148.68241882 C-32.04086199 150.47538795 -32.56480362 152.27142993 -33.08813477 154.06762695 C-34.25043642 157.64249545 -35.70571277 161.00955354 -37.19140625 164.4609375 C-37.93178174 166.6635505 -38.63852866 168.8777319 -39.3125 171.1015625 C-39.69083984 172.33777344 -40.06917969 173.57398438 -40.45898438 174.84765625 C-40.84932453 176.13530571 -41.23929692 177.42306672 -41.62890625 178.7109375 C-43.9788101 186.45412827 -46.38941563 194.12456989 -49.21118164 201.70898438 C-51.46628568 208.04012577 -53.28465037 214.52209438 -55.19140625 220.96484375 C-56.87233546 226.53948788 -58.70964054 231.81418146 -61.16894531 237.08789062 C-63.34271132 242.13302091 -64.88540323 247.42354108 -66.56640625 252.6484375 C-69.32479261 261.07040938 -72.12835368 269.32716811 -75.80078125 277.3984375 C-76.80230468 279.60403965 -77.74322615 281.83752047 -78.64453125 284.0859375 C-84.49783313 298.62677164 -84.49783313 298.62677164 -90.19140625 303.4609375 C-93.15555129 304.60099328 -94.91558847 304.56834136 -98.19140625 304.4609375 C-98.97515625 304.4403125 -99.75890625 304.4196875 -100.56640625 304.3984375 C-102.19140625 303.4609375 -102.19140625 303.4609375 -103.50390625 300.9609375 C-104.94208551 293.63929761 -102.94106067 286.80345128 -100.50390625 279.8984375 C-100.23771484 279.12105225 -99.97152344 278.34366699 -99.69726562 277.54272461 C-97.72844329 271.8453002 -95.60585093 266.21055011 -93.44702148 260.58300781 C-91.17542347 254.58770964 -89.24159549 248.50040083 -87.37109375 242.36938477 C-86.11003624 238.25975238 -84.75315119 234.21201154 -83.26171875 230.1796875 C-80.6330995 223.04406333 -78.42110385 215.78196345 -76.19140625 208.51367188 C-74.54968168 203.27746831 -72.78937456 198.4459459 -70.21826172 193.60424805 C-67.93270603 188.83370754 -66.42502858 183.72141826 -64.75390625 178.7109375 C-62.18078629 171.02301191 -59.46575452 163.48179846 -56.25292969 156.03515625 C-54.9532644 152.88343804 -54.01737439 149.76481007 -53.19140625 146.4609375 C-53.89007813 146.96625 -54.58875 147.4715625 -55.30859375 147.9921875 C-56.21867187 148.641875 -57.12875 149.2915625 -58.06640625 149.9609375 C-59.42378906 150.93546875 -59.42378906 150.93546875 -60.80859375 151.9296875 C-63.19140625 153.4609375 -63.19140625 153.4609375 -65.19140625 153.4609375 C-65.52140625 154.4509375 -65.85140625 155.4409375 -66.19140625 156.4609375 C-68.41617893 158.04215682 -70.61341998 159.48703692 -72.94140625 160.8984375 C-77.24912833 163.54831218 -81.26291402 166.25877422 -85.19140625 169.4609375 C-87.22188996 170.89358649 -89.26438505 172.30931123 -91.31640625 173.7109375 C-98.71282793 178.79116957 -105.99584331 184.01573925 -113.12890625 189.4609375 C-119.43797714 194.21559962 -126.01343053 199.1112155 -133.19140625 202.4609375 C-133.19140625 203.1209375 -133.19140625 203.7809375 -133.19140625 204.4609375 C-134.83296394 205.6126995 -136.53253022 206.68228211 -138.25390625 207.7109375 C-140.26287269 208.91245926 -142.23991016 210.16816386 -144.19140625 211.4609375 C-144.79887695 211.82896484 -145.40634766 212.19699219 -146.03222656 212.57617188 C-150.34541417 215.59608031 -151.72743785 218.24567378 -152.79296875 223.3984375 C-153.16134912 225.74849645 -153.50100565 228.10318356 -153.81640625 230.4609375 C-154.21313637 233.01629811 -154.6142197 235.57098645 -155.01953125 238.125 C-155.21353516 239.3821582 -155.40753906 240.63931641 -155.60742188 241.93457031 C-156.38434694 246.62600243 -157.43760948 251.21887674 -158.56640625 255.8359375 C-160.23846908 262.7812233 -161.63753677 269.74950453 -162.88671875 276.78125 C-163.03547455 277.61393402 -163.18423035 278.44661804 -163.3374939 279.30453491 C-164.08096473 283.47945575 -164.80950117 287.65625421 -165.51708984 291.83740234 C-167.19901459 301.52237331 -169.61804204 310.27590865 -173.19140625 319.4609375 C-173.99449471 321.86362019 -174.76189365 324.27299216 -175.515625 326.69140625 C-176.19140625 328.4609375 -176.19140625 328.4609375 -178.19140625 331.4609375 C-178.85140625 331.4609375 -179.51140625 331.4609375 -180.19140625 331.4609375 C-180.52140625 333.1109375 -180.85140625 334.7609375 -181.19140625 336.4609375 C-183.06640625 336.2734375 -183.06640625 336.2734375 -185.19140625 335.4609375 C-186.25390625 333.3359375 -186.25390625 333.3359375 -187.19140625 330.4609375 C-187.70703125 329.3059375 -188.22265625 328.1509375 -188.75390625 326.9609375 C-198.89942935 302.2587943 -187.36790009 262.94245196 -180.19140625 238.4609375 C-181.18140625 238.7909375 -182.17140625 239.1209375 -183.19140625 239.4609375 C-183.19140625 240.1209375 -183.19140625 240.7809375 -183.19140625 241.4609375 C-188.523922 245.015948 -191.76166125 246.29058202 -198.19140625 245.4609375 C-201.88241145 243.49763686 -202.92075107 242.18743297 -204.37890625 238.2734375 C-204.1047234 232.69838628 -201.91628881 229.52954745 -198.19140625 225.4609375 C-195.50288937 223.25208105 -192.74138308 221.26489667 -189.8671875 219.3046875 C-187.02282727 217.34477797 -184.47759859 215.21547607 -181.92602539 212.89575195 C-180.19140625 211.4609375 -180.19140625 211.4609375 -178.46582031 210.47924805 C-174.39193829 208.14768009 -172.6719854 206.00344388 -171.22265625 201.5234375 C-170.68464698 199.50977453 -170.17591813 197.48813773 -169.69140625 195.4609375 C-169.41006836 194.37893066 -169.12873047 193.29692383 -168.83886719 192.18212891 C-167.92257631 188.61590044 -167.05140777 185.04114075 -166.19140625 181.4609375 C-165.87828132 180.1624286 -165.56512988 178.86392609 -165.25195312 177.56542969 C-164.93476287 176.24677677 -164.61770582 174.9280918 -164.30078125 173.609375 C-164.06621216 172.63439056 -164.06621216 172.63439056 -163.8269043 171.63970947 C-163.0661394 168.46995463 -162.31783522 165.29810662 -161.58789062 162.12109375 C-160.22128007 156.25673629 -158.65909898 150.96975547 -156.19140625 145.4609375 C-155.03274951 141.88350498 -154.01604954 138.26966128 -153.00390625 134.6484375 C-152.73126953 133.69517578 -152.45863281 132.74191406 -152.17773438 131.75976562 C-150.74672778 127.1785428 -150.74672778 127.1785428 -150.19140625 122.4609375 C-154.7167587 131.17871456 -158.89928351 139.96040419 -162.69140625 149.0234375 C-165.89272747 156.65820593 -169.43615749 163.94318919 -173.42578125 171.19140625 C-175.42570518 174.8948052 -177.14790587 178.66821705 -178.84765625 182.515625 C-181.4927818 188.31337113 -184.41703974 193.97700695 -187.28955078 199.66455078 C-188.42216293 201.92057683 -189.52300007 204.19172516 -190.62890625 206.4609375 C-194.82544146 214.86828186 -199.62474139 222.97517824 -204.2890625 231.12890625 C-205.43231659 233.13136157 -206.56676318 235.13893824 -207.68359375 237.15625 C-211.33445311 243.57103678 -214.2693552 248.34035148 -221.69140625 250.4609375 C-226.4680734 250.4609375 -229.36406912 248.9732165 -233.00390625 245.9609375 C-237.99136139 239.66099417 -235.41241539 225.96100983 -234.58984375 218.50390625 C-232.77613025 203.70683064 -232.77613025 203.70683064 -231.28271484 197.97070312 C-229.77859592 192.08064025 -228.87106987 186.0829875 -227.87890625 180.08984375 C-227.55127549 178.13845688 -227.22364211 176.18707044 -226.89585876 174.23570919 C-226.44034175 171.51947674 -225.98763287 168.80277959 -225.53503418 166.08605957 C-224.74368643 161.33600522 -223.95086167 156.58620255 -223.15356445 151.83714294 C-222.73049807 149.31544831 -222.30964871 146.79338039 -221.89135742 144.27088928 C-220.83171546 137.95071255 -219.65155194 131.70114346 -218.19140625 125.4609375 C-218.67609375 126.68425781 -219.16078125 127.90757812 -219.66015625 129.16796875 C-223.08445971 137.78309513 -226.552089 146.37170091 -230.19140625 154.8984375 C-233.4697141 162.58764761 -236.46698954 170.36370917 -239.40234375 178.18945312 C-241.02980896 182.50255757 -242.70044285 186.73672471 -244.69140625 190.8984375 C-248.49373974 198.93838845 -251.23820604 207.44522981 -254.23339844 215.80908203 C-255.53634171 219.41575119 -256.89168757 223.00134579 -258.25390625 226.5859375 C-265.61784358 246.08340844 -272.29676755 265.88094308 -278.4206543 285.80151367 C-279.7385563 290.07428499 -281.16493208 294.29882632 -282.62890625 298.5234375 C-284.77198636 304.87231231 -286.4821679 311.2795953 -288.12890625 317.7734375 C-290.30286527 326.33056955 -292.79254439 334.68000214 -295.68359375 343.01953125 C-296.78285292 346.20050351 -297.79380777 349.39772231 -298.76171875 352.62109375 C-299.02210938 353.4812207 -299.2825 354.34134766 -299.55078125 355.22753906 C-300.04669291 356.87657185 -300.53422564 358.5281572 -301.01171875 360.18261719 C-302.38256333 364.70212042 -303.84082284 367.98252059 -307.19140625 371.4609375 C-310.24833947 372.98940411 -312.82125172 372.69336195 -316.19140625 372.4609375 C-318.39453125 371.35546875 -318.39453125 371.35546875 -320.19140625 369.4609375 C-321.40878535 361.69240817 -320.20493538 353.19974999 -319.44140625 345.3984375 C-319.34931885 344.37544556 -319.34931885 344.37544556 -319.25537109 343.33178711 C-318.59033263 337.42836598 -316.96518441 331.89258479 -315.28369141 326.20581055 C-314.1973526 322.48132441 -313.19847957 318.74412687 -312.2265625 314.98828125 C-311.73833008 313.11366211 -311.73833008 313.11366211 -311.24023438 311.20117188 C-310.58197812 308.66330073 -309.92834001 306.12422733 -309.27929688 303.58398438 C-307.39964659 296.40275635 -305.16223511 289.57044628 -302.41186523 282.6784668 C-299.91161896 276.08699938 -298.13603693 269.26032432 -296.23046875 262.47851562 C-294.34032271 255.90458769 -292.11845755 249.67649537 -289.40966797 243.3972168 C-287.40856259 238.57411171 -285.84863684 233.61749614 -284.25390625 228.6484375 C-281.61839324 220.5832825 -278.80252132 212.6817804 -275.55859375 204.84375 C-274.13911487 201.33155369 -272.87301505 197.78871624 -271.62890625 194.2109375 C-270.21550502 190.18542767 -268.71744953 186.30962144 -266.87890625 182.4609375 C-263.83939291 176.02714112 -261.55206118 169.31909635 -259.22143555 162.60351562 C-257.29154533 157.13768475 -255.05326577 152.02943422 -252.39648438 146.87963867 C-250.49602973 143.0652537 -248.97676034 139.12055234 -247.44140625 135.1484375 C-242.2082933 121.85741271 -236.72433005 108.66528138 -230.56640625 95.7734375 C-227.63858593 89.60675822 -225.16592566 83.33373044 -222.75 76.95166016 C-220.67968994 71.54623913 -218.25880782 66.43596578 -215.58203125 61.30078125 C-214.12331304 58.32188198 -212.95945197 55.323832 -211.81640625 52.2109375 C-209.61732034 46.26552609 -206.91329387 40.70156744 -203.95751953 35.10449219 C-201.80778848 30.96934073 -200.37028267 26.99716705 -199.19140625 22.4609375 C-197.10540514 16.16854955 -197.10540514 16.16854955 -194.25390625 13.9609375 C-191.80377775 13.36696695 -190.52331818 13.52817273 -188.19140625 14.4609375 C-185.33771573 17.31462802 -185.00113721 20.70618339 -184.12890625 24.5234375 C-183.38041159 29.37930685 -183.38041159 29.37930685 -181.19140625 33.4609375 C-181.06372014 36.36802361 -181.00618315 39.24083615 -181.00390625 42.1484375 C-180.99166016 42.95216797 -180.97941406 43.75589844 -180.96679688 44.58398438 C-180.96486328 45.37224609 -180.96292969 46.16050781 -180.9609375 46.97265625 C-180.95682861 47.68897217 -180.95271973 48.40528809 -180.94848633 49.14331055 C-181.19140625 51.4609375 -181.19140625 51.4609375 -182.06347656 54.02246094 C-183.66916975 58.91739228 -184.52413434 63.90633021 -185.46875 68.96484375 C-185.68076553 70.07971664 -185.89278107 71.19458954 -186.11122131 72.34324646 C-186.78768574 75.90258357 -187.45873204 79.4629111 -188.12890625 83.0234375 C-188.79604524 86.55886306 -189.46444977 90.09403354 -190.13587952 93.62864685 C-190.55259576 95.8231882 -190.9668655 98.01819617 -191.37815857 100.21376038 C-192.37746557 105.48450483 -193.46706969 110.71342219 -194.70507812 115.93359375 C-196.21159129 122.36197282 -197.34078017 128.81425762 -198.3828125 135.33203125 C-198.77407649 137.72330926 -199.16535288 140.11458525 -199.55664062 142.50585938 C-200.15913896 146.22073141 -200.75995328 149.93587162 -201.36010742 153.65112305 C-201.94694679 157.27460062 -202.53966805 160.89708133 -203.1328125 164.51953125 C-203.39850792 166.18368324 -203.39850792 166.18368324 -203.66957092 167.88145447 C-204.49689567 172.92598098 -205.41757613 177.64719255 -207.19140625 182.4609375 C-207.50801472 183.81567715 -207.79607086 185.17771399 -208.04296875 186.546875 C-208.23632812 187.60068359 -208.23632812 187.60068359 -208.43359375 188.67578125 C-208.55992187 189.38863281 -208.68625 190.10148438 -208.81640625 190.8359375 C-208.95046875 191.57199219 -209.08453125 192.30804688 -209.22265625 193.06640625 C-209.54946952 194.86387922 -209.87098636 196.66231383 -210.19140625 198.4609375 C-205.96960816 190.21944867 -201.89874025 181.94800531 -198.19140625 173.4609375 C-194.4770311 164.97457159 -190.40195106 156.71008459 -186.19140625 148.4609375 C-182.18318144 140.60628072 -178.26403565 132.76763503 -174.81640625 124.6484375 C-171.48222363 116.81203406 -167.55070831 109.33485446 -163.5234375 101.8359375 C-161.68807229 98.41776652 -159.9313783 94.96874083 -158.20776367 91.49316406 C-151.38187226 77.84466055 -144.00445964 64.50420447 -136.19140625 51.3984375 C-135.72089844 50.60824219 -135.25039062 49.81804688 -134.765625 49.00390625 C-133.60262348 47.12521149 -132.38880728 45.27775623 -131.1484375 43.44921875 C-126.50280851 36.43423435 -124.37639304 30.72027164 -122.96875 22.44921875 C-122.16533118 19.36069916 -121.54402898 18.15814395 -119.12890625 16.1484375 C-115.04603637 13.80295906 -112.95387659 13.07993987 -108.19140625 13.4609375 C-105.81640625 14.5234375 -105.81640625 14.5234375 -104.19140625 16.4609375 C-103.83454145 20.17233143 -104.1829036 23.40614262 -104.75390625 27.0859375 C-105.182156 30.38957844 -104.87716514 32.26072937 -104.19140625 35.4609375 C-103.21069009 50.17167993 -107.85679573 64.22805161 -112.421875 78.00390625 C-114.30550318 83.71330737 -115.91719057 89.47960275 -117.41748047 95.30053711 C-118.39791495 98.99749905 -119.57472749 102.47284295 -121.05859375 106 C-123.59073309 112.17116675 -125.30279256 118.55267756 -127.05383301 124.97644043 C-128.02945143 128.55522668 -129.02249902 132.12916436 -130.015625 135.703125 C-130.20726227 136.39402222 -130.39889954 137.08491943 -130.59634399 137.79675293 C-131.94527437 142.63808936 -133.39504509 147.4294906 -134.94140625 152.2109375 C-136.85576473 158.18080104 -138.47428496 164.1959436 -140.00390625 170.2734375 C-140.22336914 171.14129883 -140.44283203 172.00916016 -140.66894531 172.90332031 C-140.86842773 173.7125293 -141.06791016 174.52173828 -141.2734375 175.35546875 C-141.53991089 176.43598511 -141.53991089 176.43598511 -141.81176758 177.53833008 C-142.28826615 179.62484415 -142.28826615 179.62484415 -142.19140625 182.4609375 C-141.42570312 181.8421875 -141.42570312 181.8421875 -140.64453125 181.2109375 C-135.21940384 176.90161643 -129.61223946 173.01703131 -123.79296875 169.2578125 C-121.2801162 167.64601162 -121.2801162 167.64601162 -119.7734375 166.00390625 C-116.76303697 163.0678366 -112.94315365 161.06364903 -109.37304688 158.86523438 C-105.87259725 156.66953168 -103.0984795 154.42195644 -100.19140625 151.4609375 C-98.42884965 150.27081242 -96.6348778 149.12623607 -94.81640625 148.0234375 C-91.19877873 145.82738474 -87.98991147 143.48204421 -84.77148438 140.73461914 C-82.05169491 138.54223014 -79.09323977 136.73870089 -76.12890625 134.8984375 C-71.95086831 132.29447198 -68.02367814 129.55647214 -64.19140625 126.4609375 C-62.33441115 125.20473493 -60.45905858 123.97524566 -58.56640625 122.7734375 C-57.62539063 122.17144531 -56.684375 121.56945312 -55.71484375 120.94921875 C-53.19140625 119.4609375 -53.19140625 119.4609375 -50.19140625 118.4609375 C-50.19140625 117.8009375 -50.19140625 117.1409375 -50.19140625 116.4609375 C-49.26908203 116.05875 -49.26908203 116.05875 -48.328125 115.6484375 C-44.04383058 113.57120384 -41.64976236 112.36127986 -39.44140625 108.0234375 C-39.01461127 106.50541537 -38.59937386 104.98412743 -38.19140625 103.4609375 C-37.43950271 101.35619894 -36.67365847 99.25641859 -35.8984375 97.16015625 C-32.88145595 88.77874398 -30.4628049 80.26544177 -28.0637207 71.69091797 C-24.47653094 58.91203825 -24.47653094 58.91203825 -22.15234375 53.4296875 C-19.74285618 47.68686739 -18.36287574 41.71529891 -16.87020874 35.68182373 C-14.13009886 24.68972631 -11.3835062 14.08612578 -5.19140625 4.4609375 C-4.72476562 3.6978125 -4.258125 2.9346875 -3.77734375 2.1484375 C-2.19140625 0.4609375 -2.19140625 0.4609375 0 0 Z M-148.19140625 115.4609375 C-147.19140625 118.4609375 -147.19140625 118.4609375 -147.19140625 118.4609375 Z M-217.19140625 120.4609375 C-216.19140625 123.4609375 -216.19140625 123.4609375 -216.19140625 123.4609375 Z " fill="#000000" transform="translate(320.19140625,10.5390625)"/>
</svg>
